<mxfile host="app.diagrams.net" modified="2023-02-27T15:35:12.740Z" agent="5.0 (Macintosh; Intel Mac OS X 10_15_7) AppleWebKit/605.1.15 (KHTML, like Gecko) Version/16.3 Safari/605.1.15" etag="yalaFhdZcvrEFztD1Vak" version="20.8.20" type="github">
  <diagram name="Страница 1" id="NSaIMILQt6Kv-WEkAbA4">
    <mxGraphModel dx="1656" dy="1103" grid="1" gridSize="10" guides="1" tooltips="1" connect="1" arrows="1" fold="1" page="1" pageScale="1" pageWidth="827" pageHeight="1169" math="0" shadow="0">
      <root>
        <mxCell id="0" />
        <mxCell id="1" parent="0" />
        <mxCell id="DVvxfKu2eNCzTl4a53yx-3" value="" style="edgeStyle=orthogonalEdgeStyle;rounded=0;orthogonalLoop=1;jettySize=auto;html=1;fontSize=24;" edge="1" parent="1" source="DVvxfKu2eNCzTl4a53yx-1" target="DVvxfKu2eNCzTl4a53yx-2">
          <mxGeometry relative="1" as="geometry" />
        </mxCell>
        <mxCell id="DVvxfKu2eNCzTl4a53yx-1" value="&lt;font style=&quot;font-size: 24px;&quot;&gt;начало&lt;/font&gt;" style="ellipse;whiteSpace=wrap;html=1;" vertex="1" parent="1">
          <mxGeometry x="320" y="10" width="180" height="80" as="geometry" />
        </mxCell>
        <mxCell id="DVvxfKu2eNCzTl4a53yx-5" value="" style="edgeStyle=orthogonalEdgeStyle;rounded=0;orthogonalLoop=1;jettySize=auto;html=1;fontSize=24;" edge="1" parent="1" source="DVvxfKu2eNCzTl4a53yx-2" target="DVvxfKu2eNCzTl4a53yx-4">
          <mxGeometry relative="1" as="geometry" />
        </mxCell>
        <mxCell id="DVvxfKu2eNCzTl4a53yx-2" value="&lt;font style=&quot;font-size: 24px;&quot;&gt;Ввод&lt;br&gt;N&lt;br&gt;A&lt;/font&gt;" style="shape=parallelogram;perimeter=parallelogramPerimeter;whiteSpace=wrap;html=1;fixedSize=1;" vertex="1" parent="1">
          <mxGeometry x="325" y="110" width="170" height="90" as="geometry" />
        </mxCell>
        <mxCell id="DVvxfKu2eNCzTl4a53yx-7" value="" style="edgeStyle=orthogonalEdgeStyle;rounded=0;orthogonalLoop=1;jettySize=auto;html=1;fontSize=24;" edge="1" parent="1" source="DVvxfKu2eNCzTl4a53yx-4" target="DVvxfKu2eNCzTl4a53yx-6">
          <mxGeometry relative="1" as="geometry" />
        </mxCell>
        <mxCell id="DVvxfKu2eNCzTl4a53yx-4" value="iMax = 0&lt;br&gt;iMin = 0&lt;br&gt;i = 0" style="whiteSpace=wrap;html=1;fontSize=24;" vertex="1" parent="1">
          <mxGeometry x="325" y="230" width="170" height="80" as="geometry" />
        </mxCell>
        <mxCell id="DVvxfKu2eNCzTl4a53yx-9" value="" style="edgeStyle=orthogonalEdgeStyle;rounded=0;orthogonalLoop=1;jettySize=auto;html=1;fontSize=24;" edge="1" parent="1" source="DVvxfKu2eNCzTl4a53yx-6" target="DVvxfKu2eNCzTl4a53yx-8">
          <mxGeometry relative="1" as="geometry" />
        </mxCell>
        <mxCell id="DVvxfKu2eNCzTl4a53yx-16" value="" style="edgeStyle=orthogonalEdgeStyle;rounded=0;orthogonalLoop=1;jettySize=auto;html=1;fontSize=24;" edge="1" parent="1" source="DVvxfKu2eNCzTl4a53yx-6" target="DVvxfKu2eNCzTl4a53yx-15">
          <mxGeometry relative="1" as="geometry" />
        </mxCell>
        <mxCell id="DVvxfKu2eNCzTl4a53yx-6" value="i &amp;lt; N&amp;nbsp;" style="whiteSpace=wrap;html=1;fontSize=24;" vertex="1" parent="1">
          <mxGeometry x="325" y="340" width="170" height="80" as="geometry" />
        </mxCell>
        <mxCell id="DVvxfKu2eNCzTl4a53yx-13" value="" style="edgeStyle=orthogonalEdgeStyle;rounded=0;orthogonalLoop=1;jettySize=auto;html=1;fontSize=24;" edge="1" parent="1" source="DVvxfKu2eNCzTl4a53yx-8" target="DVvxfKu2eNCzTl4a53yx-12">
          <mxGeometry relative="1" as="geometry" />
        </mxCell>
        <mxCell id="DVvxfKu2eNCzTl4a53yx-8" value="Вывод iMax&lt;br&gt;iMin" style="shape=document;whiteSpace=wrap;html=1;boundedLbl=1;fontSize=24;" vertex="1" parent="1">
          <mxGeometry x="580" y="320" width="130" height="120" as="geometry" />
        </mxCell>
        <mxCell id="DVvxfKu2eNCzTl4a53yx-12" value="Завершение" style="ellipse;whiteSpace=wrap;html=1;fontSize=24;" vertex="1" parent="1">
          <mxGeometry x="770" y="325" width="170" height="110" as="geometry" />
        </mxCell>
        <mxCell id="DVvxfKu2eNCzTl4a53yx-14" value="нет" style="text;html=1;align=center;verticalAlign=middle;resizable=0;points=[];autosize=1;strokeColor=none;fillColor=none;fontSize=24;" vertex="1" parent="1">
          <mxGeometry x="500" y="350" width="60" height="40" as="geometry" />
        </mxCell>
        <mxCell id="DVvxfKu2eNCzTl4a53yx-18" value="" style="edgeStyle=orthogonalEdgeStyle;rounded=0;orthogonalLoop=1;jettySize=auto;html=1;fontSize=24;" edge="1" parent="1" source="DVvxfKu2eNCzTl4a53yx-15" target="DVvxfKu2eNCzTl4a53yx-17">
          <mxGeometry relative="1" as="geometry" />
        </mxCell>
        <mxCell id="DVvxfKu2eNCzTl4a53yx-15" value="A [i] &amp;gt; A [iMax]" style="rhombus;whiteSpace=wrap;html=1;fontSize=24;" vertex="1" parent="1">
          <mxGeometry x="315" y="455" width="190" height="130" as="geometry" />
        </mxCell>
        <mxCell id="DVvxfKu2eNCzTl4a53yx-21" value="" style="edgeStyle=orthogonalEdgeStyle;rounded=0;orthogonalLoop=1;jettySize=auto;html=1;fontSize=24;" edge="1" parent="1" source="DVvxfKu2eNCzTl4a53yx-17" target="DVvxfKu2eNCzTl4a53yx-20">
          <mxGeometry relative="1" as="geometry" />
        </mxCell>
        <mxCell id="DVvxfKu2eNCzTl4a53yx-17" value="iMax = i" style="whiteSpace=wrap;html=1;fontSize=24;" vertex="1" parent="1">
          <mxGeometry x="320" y="650" width="180" height="60" as="geometry" />
        </mxCell>
        <mxCell id="DVvxfKu2eNCzTl4a53yx-19" value="да" style="text;html=1;align=center;verticalAlign=middle;resizable=0;points=[];autosize=1;strokeColor=none;fillColor=none;fontSize=24;" vertex="1" parent="1">
          <mxGeometry x="424" y="590" width="50" height="40" as="geometry" />
        </mxCell>
        <mxCell id="DVvxfKu2eNCzTl4a53yx-27" value="" style="edgeStyle=orthogonalEdgeStyle;rounded=0;orthogonalLoop=1;jettySize=auto;html=1;fontSize=24;" edge="1" parent="1" source="DVvxfKu2eNCzTl4a53yx-20" target="DVvxfKu2eNCzTl4a53yx-26">
          <mxGeometry relative="1" as="geometry" />
        </mxCell>
        <mxCell id="DVvxfKu2eNCzTl4a53yx-35" style="edgeStyle=orthogonalEdgeStyle;rounded=0;orthogonalLoop=1;jettySize=auto;html=1;fontSize=24;" edge="1" parent="1" source="DVvxfKu2eNCzTl4a53yx-20">
          <mxGeometry relative="1" as="geometry">
            <mxPoint x="410" y="980" as="targetPoint" />
            <Array as="points">
              <mxPoint x="570" y="810" />
              <mxPoint x="570" y="980" />
            </Array>
          </mxGeometry>
        </mxCell>
        <mxCell id="DVvxfKu2eNCzTl4a53yx-20" value="A [I] &amp;lt; A [iMin]" style="rhombus;whiteSpace=wrap;html=1;fontSize=24;" vertex="1" parent="1">
          <mxGeometry x="320" y="760" width="180" height="100" as="geometry" />
        </mxCell>
        <mxCell id="DVvxfKu2eNCzTl4a53yx-34" style="edgeStyle=orthogonalEdgeStyle;rounded=0;orthogonalLoop=1;jettySize=auto;html=1;fontSize=24;exitX=1;exitY=0.5;exitDx=0;exitDy=0;" edge="1" parent="1" source="DVvxfKu2eNCzTl4a53yx-15">
          <mxGeometry relative="1" as="geometry">
            <mxPoint x="410" y="740" as="targetPoint" />
            <mxPoint x="530" y="550" as="sourcePoint" />
            <Array as="points">
              <mxPoint x="570" y="520" />
              <mxPoint x="570" y="740" />
            </Array>
          </mxGeometry>
        </mxCell>
        <mxCell id="DVvxfKu2eNCzTl4a53yx-25" value="нет" style="text;html=1;align=center;verticalAlign=middle;resizable=0;points=[];autosize=1;strokeColor=none;fillColor=none;fontSize=24;" vertex="1" parent="1">
          <mxGeometry x="500" y="470" width="60" height="40" as="geometry" />
        </mxCell>
        <mxCell id="DVvxfKu2eNCzTl4a53yx-30" value="" style="edgeStyle=orthogonalEdgeStyle;rounded=0;orthogonalLoop=1;jettySize=auto;html=1;fontSize=24;" edge="1" parent="1" source="DVvxfKu2eNCzTl4a53yx-26" target="DVvxfKu2eNCzTl4a53yx-29">
          <mxGeometry relative="1" as="geometry" />
        </mxCell>
        <mxCell id="DVvxfKu2eNCzTl4a53yx-26" value="iMin = i" style="whiteSpace=wrap;html=1;fontSize=24;" vertex="1" parent="1">
          <mxGeometry x="320" y="900" width="180" height="60" as="geometry" />
        </mxCell>
        <mxCell id="DVvxfKu2eNCzTl4a53yx-28" value="да" style="text;html=1;align=center;verticalAlign=middle;resizable=0;points=[];autosize=1;strokeColor=none;fillColor=none;fontSize=24;" vertex="1" parent="1">
          <mxGeometry x="420" y="850" width="50" height="40" as="geometry" />
        </mxCell>
        <mxCell id="DVvxfKu2eNCzTl4a53yx-31" style="edgeStyle=orthogonalEdgeStyle;rounded=0;orthogonalLoop=1;jettySize=auto;html=1;fontSize=24;entryX=0;entryY=0.25;entryDx=0;entryDy=0;" edge="1" parent="1" source="DVvxfKu2eNCzTl4a53yx-29" target="DVvxfKu2eNCzTl4a53yx-6">
          <mxGeometry relative="1" as="geometry">
            <mxPoint x="200" y="360" as="targetPoint" />
            <Array as="points">
              <mxPoint x="240" y="1030" />
              <mxPoint x="240" y="360" />
            </Array>
          </mxGeometry>
        </mxCell>
        <mxCell id="DVvxfKu2eNCzTl4a53yx-29" value="i = i+1" style="whiteSpace=wrap;html=1;fontSize=24;" vertex="1" parent="1">
          <mxGeometry x="320" y="1000" width="180" height="60" as="geometry" />
        </mxCell>
        <mxCell id="DVvxfKu2eNCzTl4a53yx-32" value="да" style="text;html=1;align=center;verticalAlign=middle;resizable=0;points=[];autosize=1;strokeColor=none;fillColor=none;fontSize=24;" vertex="1" parent="1">
          <mxGeometry x="414" y="415" width="50" height="40" as="geometry" />
        </mxCell>
        <mxCell id="DVvxfKu2eNCzTl4a53yx-36" value="нет" style="text;html=1;align=center;verticalAlign=middle;resizable=0;points=[];autosize=1;strokeColor=none;fillColor=none;fontSize=24;" vertex="1" parent="1">
          <mxGeometry x="500" y="770" width="60" height="40" as="geometry" />
        </mxCell>
      </root>
    </mxGraphModel>
  </diagram>
</mxfile>
